<?xml version="1.0" encoding="UTF-8" standalone="no"?>
<svg
   xmlns:dc="http://purl.org/dc/elements/1.1/"
   xmlns:cc="http://creativecommons.org/ns#"
   xmlns:rdf="http://www.w3.org/1999/02/22-rdf-syntax-ns#"
   xmlns:svg="http://www.w3.org/2000/svg"
   xmlns="http://www.w3.org/2000/svg"
   xmlns:sodipodi="http://sodipodi.sourceforge.net/DTD/sodipodi-0.dtd"
   xmlns:inkscape="http://www.inkscape.org/namespaces/inkscape"
   aria-hidden="true"
   focusable="false"
   data-prefix="fas"
   data-icon="plus"
   class="svg-inline--fa fa-plus fa-w-14"
   role="img"
   viewBox="0 0 568 568"
   version="1.1"
   id="svg4"
   sodipodi:docname="plus-solid.svg"
   width="568"
   height="568"
   inkscape:version="0.92.5 (2060ec1f9f, 2020-04-08)"
   inkscape:export-filename="/home/guillod/Farandole/Inventaire/website/static/plus-solid.png"
   inkscape:export-xdpi="96.755905"
   inkscape:export-ydpi="96.755905">
  <metadata
     id="metadata10">
    <rdf:RDF>
      <cc:Work
         rdf:about="">
        <dc:format>image/svg+xml</dc:format>
        <dc:type
           rdf:resource="http://purl.org/dc/dcmitype/StillImage" />
        <dc:title></dc:title>
      </cc:Work>
    </rdf:RDF>
  </metadata>
  <defs
     id="defs8" />
  <sodipodi:namedview
     pagecolor="#ffffff"
     bordercolor="#666666"
     borderopacity="1"
     objecttolerance="10"
     gridtolerance="10"
     guidetolerance="10"
     inkscape:pageopacity="0"
     inkscape:pageshadow="2"
     inkscape:window-width="1848"
     inkscape:window-height="1053"
     id="namedview6"
     showgrid="false"
     fit-margin-top="60"
     fit-margin-bottom="60"
     fit-margin-left="60"
     fit-margin-right="60"
     inkscape:zoom="0.4609375"
     inkscape:cx="284"
     inkscape:cy="284"
     inkscape:window-x="72"
     inkscape:window-y="27"
     inkscape:window-maximized="1"
     inkscape:current-layer="svg4" />
  <path
     d="M 476,236 H 332 V 92 C 332,74.33 317.67,60 300,60 h -32 c -17.67,0 -32,14.33 -32,32 V 236 H 92 c -17.67,0 -32,14.33 -32,32 v 32 c 0,17.67 14.33,32 32,32 h 144 v 144 c 0,17.67 14.33,32 32,32 h 32 c 17.67,0 32,-14.33 32,-32 V 332 h 144 c 17.67,0 32,-14.33 32,-32 v -32 c 0,-17.67 -14.33,-32 -32,-32 z"
     id="path2"
     inkscape:connector-curvature="0"
     style="fill:currentColor" />
</svg>
