<?xml version="1.0" encoding="UTF-8" standalone="no"?>
<svg
   xmlns:dc="http://purl.org/dc/elements/1.1/"
   xmlns:cc="http://creativecommons.org/ns#"
   xmlns:rdf="http://www.w3.org/1999/02/22-rdf-syntax-ns#"
   xmlns:svg="http://www.w3.org/2000/svg"
   xmlns="http://www.w3.org/2000/svg"
   xmlns:sodipodi="http://sodipodi.sourceforge.net/DTD/sodipodi-0.dtd"
   xmlns:inkscape="http://www.inkscape.org/namespaces/inkscape"
   version="1.1"
   viewBox="0 0 32 32"
   id="svg4"
   sodipodi:docname="icon.svg"
   width="32"
   height="32"
   inkscape:version="0.92.5 (2060ec1f9f, 2020-04-08)"
   inkscape:export-filename="icon-48.png"
   inkscape:export-xdpi="6.4000001"
   inkscape:export-ydpi="6.4000001">
  <metadata
     id="metadata10">
    <rdf:RDF>
      <cc:Work
         rdf:about="">
        <dc:format>image/svg+xml</dc:format>
        <dc:type
           rdf:resource="http://purl.org/dc/dcmitype/StillImage" />
        <dc:title></dc:title>
      </cc:Work>
    </rdf:RDF>
  </metadata>
  <defs
     id="defs8" />
  <sodipodi:namedview
     pagecolor="#ffffff"
     bordercolor="#666666"
     borderopacity="1"
     objecttolerance="10"
     gridtolerance="10"
     guidetolerance="10"
     inkscape:pageopacity="0"
     inkscape:pageshadow="2"
     inkscape:window-width="1848"
     inkscape:window-height="1053"
     id="namedview6"
     showgrid="false"
     inkscape:zoom="14.75"
     inkscape:cx="7.3810746"
     inkscape:cy="27.517181"
     inkscape:window-x="72"
     inkscape:window-y="27"
     inkscape:window-maximized="1"
     inkscape:current-layer="svg4" />
  <path
     d="m 29.3,4.8 h -1.4 c -0.385,0 -0.7,0.315 -0.7,0.7 v 6.3 H 4.8 V 5.5 C 4.8,5.115 4.485,4.8 4.1,4.8 H 2.7 C 2.315,4.8 2,5.115 2,5.5 v 21.7 h 2.8 v -1.4 h 22.4 v 1.4 H 30 V 5.5 C 30,5.115 29.685,4.8 29.3,4.8 Z M 27.2,23 H 4.8 V 14.6 H 27.2 Z M 18.1,10.4 h 4.2 c 0.385,0 0.7,-0.315 0.7,-0.7 V 5.5 C 23,5.115 22.685,4.8 22.3,4.8 h -4.2 c -0.385,0 -0.7,0.315 -0.7,0.7 v 4.2 c 0,0.385 0.315,0.7 0.7,0.7 z M 6.9,21.6 h 4.2 c 0.385,0 0.7,-0.315 0.7,-0.7 V 16.7 C 11.8,16.315 11.485,16 11.1,16 H 6.9 c -0.385,0 -0.7,0.315 -0.7,0.7 v 4.2 c 0,0.385 0.315,0.7 0.7,0.7 z m 7,0 h 4.2 c 0.385,0 0.7,-0.315 0.7,-0.7 V 16.7 C 18.8,16.315 18.485,16 18.1,16 h -4.2 c -0.385,0 -0.7,0.315 -0.7,0.7 v 4.2 c 0,0.385 0.315,0.7 0.7,0.7 z"
     class=""
     id="path2"
     inkscape:connector-curvature="0"
     style="fill:currentColor;stroke-width:1" />
</svg>
